<svg width="49" height="49" viewBox="0 0 49 49" fill="none" xmlns="http://www.w3.org/2000/svg">
<g clip-path="url(#clip0_6_106)">
<path d="M0.923096 24.3845C0.923096 11.1297 11.6683 0.384521 24.9231 0.384521C38.1779 0.384521 48.9231 11.1297 48.9231 24.3845C48.9231 37.6393 38.1779 48.3845 24.9231 48.3845C11.6683 48.3845 0.923096 37.6393 0.923096 24.3845Z" fill="white" fill-opacity="0.2"/>
<path d="M28.2356 16.4665C28.4231 16.4665 28.5403 16.3376 28.5637 16.1736C28.8801 14.2517 28.8801 14.2282 30.8606 13.865C31.0598 13.8298 31.177 13.7126 31.177 13.5368C31.177 13.3611 31.0598 13.2439 30.884 13.2087C28.8684 12.7986 28.8918 12.7868 28.5637 10.9118C28.5403 10.7243 28.4231 10.6072 28.2356 10.6072C28.0598 10.6072 27.9426 10.7243 27.9192 10.9001C27.5793 12.8337 27.6145 12.8689 25.6106 13.2087C25.4348 13.2322 25.3059 13.3611 25.3059 13.5368C25.3059 13.7126 25.4231 13.8298 25.5989 13.865C27.6145 14.2634 27.5911 14.2751 27.9192 16.1736C27.9426 16.3376 28.0598 16.4665 28.2356 16.4665ZM24.7786 37.1853C29.384 37.1853 33.3098 34.6657 35.1028 30.5993C35.4778 29.7439 35.3606 29.0876 34.9739 28.7126C34.5872 28.3611 33.9543 28.279 33.2629 28.5954C32.384 28.9704 31.2708 29.1814 30.0286 29.1814C24.884 29.1814 21.6028 26.0407 21.6028 21.0134C21.6028 19.6306 21.8958 18.2595 22.2942 17.3923C22.634 16.6072 22.5872 16.0095 22.2356 15.6111C21.8489 15.1775 21.1809 15.1072 20.3723 15.4236C16.2356 17.0876 13.4817 21.2595 13.4817 25.9704C13.4817 32.3689 18.1926 37.1853 24.7786 37.1853ZM33.9075 24.8103C34.1887 24.8103 34.3997 24.6111 34.4348 24.3064C34.8098 21.2361 34.927 21.1423 38.0676 20.6618C38.4075 20.615 38.595 20.4275 38.595 20.1345C38.595 19.8532 38.4075 19.6657 38.1379 19.6072C34.9387 18.9626 34.8098 19.0095 34.4348 15.9626C34.3997 15.6579 34.1887 15.4587 33.9075 15.4587C33.6262 15.4587 33.4153 15.6579 33.3801 15.9392C32.9934 19.0798 32.8997 19.1736 29.6887 19.6072C29.4192 19.6423 29.22 19.8532 29.22 20.1345C29.22 20.4157 29.4192 20.6032 29.6887 20.6618C32.9114 21.3064 32.9817 21.2712 33.3801 24.3415C33.4153 24.6111 33.6379 24.8103 33.9075 24.8103ZM24.7903 34.2204C19.927 34.2204 16.4465 30.6462 16.4465 25.8884C16.4465 23.4861 17.4426 21.1657 19.1418 19.5954C18.9895 20.1579 18.8958 20.9079 18.8958 21.6462C18.8958 27.8337 23.0208 31.8767 29.3489 31.8767C29.9465 31.8767 30.509 31.8064 30.8137 31.7126C29.3958 33.2947 27.1692 34.2204 24.7903 34.2204Z" fill="white"/>
</g>
<defs>
<clipPath id="clip0_6_106">
<rect width="48" height="48" fill="white" transform="translate(0.923096 0.384521)"/>
</clipPath>
</defs>
</svg>
