<svg width="49" height="49" viewBox="0 0 49 49" fill="none" xmlns="http://www.w3.org/2000/svg">
<g clip-path="url(#clip0_6_99)">
<path d="M0.251221 24.3845C0.251221 11.1297 10.9964 0.384521 24.2512 0.384521C37.506 0.384521 48.2512 11.1297 48.2512 24.3845C48.2512 37.6393 37.506 48.3845 24.2512 48.3845C10.9964 48.3845 0.251221 37.6393 0.251221 24.3845Z" fill="white" fill-opacity="0.3"/>
<path d="M13.9934 26.7908C13.9934 31.0565 16.4192 32.908 23.2864 36.494C23.591 36.6463 23.9309 36.7518 24.1653 36.7518C24.3996 36.7518 24.7395 36.6463 25.0559 36.494C31.9114 32.9198 34.3489 31.0565 34.3489 26.7908V18.119C34.3489 16.4432 33.7864 15.7635 32.3332 15.1424C31.1731 14.6502 26.9074 13.2205 25.8176 12.869C25.302 12.7049 24.6692 12.5994 24.1653 12.5994C23.6614 12.5994 23.0285 12.7283 22.5129 12.869C21.4348 13.1737 17.1574 14.6619 16.009 15.1424C14.5442 15.7635 13.9934 16.4432 13.9934 18.119V26.7908ZM24.2942 33.658V15.3885C24.4934 15.4002 24.6809 15.4471 25.0324 15.5643C26.2512 16.0213 29.4387 17.1229 31.1145 17.744C31.4426 17.8729 31.5481 18.0604 31.5481 18.5057V26.3455C31.5481 29.5213 29.8489 30.4119 24.7512 33.4471C24.5285 33.576 24.4114 33.6346 24.2942 33.658Z" fill="white"/>
</g>
<defs>
<clipPath id="clip0_6_99">
<rect width="48" height="48" fill="white" transform="translate(0.251221 0.384521)"/>
</clipPath>
</defs>
</svg>
