<svg width="49" height="49" viewBox="0 0 49 49" fill="none" xmlns="http://www.w3.org/2000/svg">
<path d="M0.923096 24.3845C0.923096 11.1297 11.6683 0.384521 24.9231 0.384521C38.1779 0.384521 48.9231 11.1297 48.9231 24.3845C48.9231 37.6393 38.1779 48.3845 24.9231 48.3845C11.6683 48.3845 0.923096 37.6393 0.923096 24.3845Z" fill="white" fill-opacity="0.3"/>
<path d="M13.4114 24.3885C13.4114 24.8455 13.6106 25.326 13.927 25.6424L21.5676 33.2596C21.9192 33.6112 22.3411 33.7869 22.7512 33.7869C23.7473 33.7869 24.427 33.0955 24.427 32.1815C24.427 31.6776 24.2043 31.2674 23.8879 30.9627L21.2629 28.3377L18.6614 25.9471L21.2278 26.0877H34.47C35.5247 26.0877 36.2278 25.3963 36.2278 24.3885C36.2278 23.369 35.5247 22.6893 34.47 22.6893H21.2278L18.6731 22.8299L21.2629 20.4393L23.8879 17.8026C24.2043 17.4979 24.427 17.0994 24.427 16.5838C24.427 15.6698 23.7473 14.9783 22.7512 14.9783C22.3411 14.9783 21.9192 15.1541 21.5559 15.5174L13.927 23.1346C13.6106 23.451 13.4114 23.9315 13.4114 24.3885Z" fill="white"/>
</svg>
