<svg width="49" height="49" viewBox="0 0 49 49" fill="none" xmlns="http://www.w3.org/2000/svg">
<g clip-path="url(#clip0_6_74)">
<path d="M0.923096 24.3845C0.923096 11.1297 11.6683 0.384521 24.9231 0.384521C38.1779 0.384521 48.9231 11.1297 48.9231 24.3845C48.9231 37.6393 38.1779 48.3845 24.9231 48.3845C11.6683 48.3845 0.923096 37.6393 0.923096 24.3845Z" fill="white" fill-opacity="0.2"/>
<path d="M23.4807 34.8767C24.4905 34.8767 25.2424 34.114 25.2424 33.115V29.656H25.4358C29.0022 29.656 31.0432 30.9665 32.4397 33.5339C32.9553 34.4577 33.5247 34.7478 34.2551 34.7478C35.2864 34.7478 35.9309 33.738 35.9309 31.74C35.9309 24.1667 32.3967 19.6657 25.4358 19.6657H25.2424V16.1853C25.2424 15.1863 24.4905 14.3913 23.47 14.3913C22.8254 14.3913 22.3528 14.6491 21.6438 15.2937L13.093 23.2214C12.6526 23.6296 12.4592 24.156 12.4592 24.6286C12.4592 25.0906 12.6633 25.6384 13.093 26.0466L21.6438 34.0173C22.2883 34.6081 22.8147 34.8767 23.4807 34.8767ZM22.7073 31.3855C22.6428 31.3855 22.5891 31.364 22.5247 31.2995L15.6711 24.822C15.5852 24.7468 15.553 24.6931 15.553 24.6286C15.553 24.5642 15.5852 24.5212 15.6711 24.4353L22.5247 17.9148C22.5784 17.8718 22.6428 17.8396 22.6965 17.8396C22.804 17.8396 22.8792 17.9148 22.8792 18.0222V21.7605C22.8792 22.0075 22.9866 22.115 23.2229 22.115H24.5012C30.7747 22.115 33.4924 25.8855 33.6106 31.0525C33.6106 31.1169 33.5891 31.1599 33.5461 31.1599C33.5032 31.1599 33.471 31.1277 33.4495 31.0632C32.1497 28.3991 29.1633 27.1638 24.5012 27.1638H23.2229C22.9866 27.1638 22.8792 27.2712 22.8792 27.5075V31.2029C22.8792 31.3103 22.804 31.3855 22.7073 31.3855Z" fill="white"/>
</g>
<defs>
<clipPath id="clip0_6_74">
<rect width="48" height="48" fill="white" transform="translate(0.923096 0.384521)"/>
</clipPath>
</defs>
</svg>
