<svg width="49" height="49" viewBox="0 0 49 49" fill="none" xmlns="http://www.w3.org/2000/svg">
<g clip-path="url(#clip0_6_113)">
<path d="M0.579346 24.3845C0.579346 11.1297 11.3245 0.384521 24.5793 0.384521C37.8341 0.384521 48.5793 11.1297 48.5793 24.3845C48.5793 37.6393 37.8341 48.3845 24.5793 48.3845C11.3245 48.3845 0.579346 37.6393 0.579346 24.3845Z" fill="white" fill-opacity="0.2"/>
<path d="M11.177 29.0407C11.177 33.4704 13.966 37.0212 17.8098 37.0212H21.6535C23.2824 37.8181 25.1691 38.2634 27.1965 38.2634H28.8605C30.4777 38.2634 31.8254 38.1579 32.6926 37.9353C34.5676 37.4782 35.7746 36.0837 35.7746 34.3962C35.7746 34.1618 35.7512 33.9509 35.6809 33.7282C36.4895 33.0486 36.9465 32.0759 36.9465 31.0329C36.9465 30.5759 36.8645 30.1306 36.7121 29.7556C37.2395 29.1462 37.5441 28.3025 37.5441 27.4236C37.5441 26.8376 37.4152 26.2868 37.1809 25.8298C37.509 25.279 37.6965 24.5876 37.6965 23.8142C37.6965 21.7634 36.1613 20.2048 34.1223 20.2048H29.8801C29.6926 20.2048 29.5637 20.1228 29.5871 19.9236C29.7512 18.8103 31.4973 16.0095 31.4973 13.6306C31.4973 11.6853 30.1027 10.2439 28.2043 10.2439C26.8332 10.2439 25.8723 10.9587 25.0051 12.6228C23.4934 15.5407 21.5949 18.072 19.2512 21.0017H17.3645C13.7316 21.0017 11.177 24.5407 11.177 29.0407ZM19.2277 28.9001C19.2277 26.4743 19.7668 24.9392 21.3488 22.8064C23.1301 20.4157 25.6262 17.5095 27.4191 13.9353C27.677 13.4079 27.8762 13.2673 28.1691 13.2673C28.509 13.2673 28.7316 13.5251 28.7316 13.947C28.7316 15.4353 26.7629 18.3767 26.7629 20.3806C26.7629 21.9275 27.9699 22.9822 29.7277 22.9822H33.9816C34.5324 22.9822 34.9309 23.3689 34.9309 23.9079C34.9309 24.2712 34.802 24.529 34.4855 24.8572C34.0285 25.3259 33.9699 26.0759 34.3801 26.5095C34.6496 26.8728 34.7668 27.1189 34.7668 27.4236C34.7668 27.7868 34.5793 28.1032 34.216 28.3728C33.6535 28.7712 33.4777 29.4861 33.7824 30.1189C33.9816 30.4939 34.0754 30.7048 34.0754 30.9861C34.0754 31.4431 33.7824 31.7947 33.2199 32.1111C32.6691 32.4157 32.5051 33.1072 32.7277 33.6462C32.9035 34.0798 32.9387 34.1736 32.927 34.3728C32.927 34.7712 32.634 35.0993 31.9543 35.2634C31.2746 35.4275 30.173 35.5095 28.5441 35.4861L27.2082 35.4743C22.4504 35.4275 19.2277 32.7907 19.2277 28.9001ZM13.8605 29.0407C13.8605 26.1579 15.2199 23.9079 16.8957 23.7204C17.1184 23.7087 17.341 23.7087 17.5637 23.697C16.802 25.2907 16.4621 26.9548 16.4621 28.947C16.4621 31.0329 17.1418 32.9197 18.4191 34.4665C18.1262 34.4665 17.798 34.4548 17.4934 34.4431C15.4777 34.2556 13.8605 31.9587 13.8605 29.0407Z" fill="white"/>
</g>
<defs>
<clipPath id="clip0_6_113">
<rect width="48" height="48" fill="white" transform="translate(0.579346 0.384521)"/>
</clipPath>
</defs>
</svg>
