<svg width="49" height="49" viewBox="0 0 49 49" fill="none" xmlns="http://www.w3.org/2000/svg">
<path d="M0.923096 24.3845C0.923096 11.1297 11.6683 0.384521 24.9231 0.384521C38.1779 0.384521 48.9231 11.1297 48.9231 24.3845C48.9231 37.6393 38.1779 48.3845 24.9231 48.3845C11.6683 48.3845 0.923096 37.6393 0.923096 24.3845Z" fill="white" fill-opacity="0.2"/>
<path d="M15.5481 35.0408H34.4973C36.9817 35.0408 38.4348 33.576 38.4348 30.9276V17.9549C38.4348 15.2948 36.97 13.8416 34.2981 13.8416H15.3606C12.8762 13.8416 11.4114 15.2948 11.4114 17.9549V30.9276C11.4114 33.5877 12.8762 35.0408 15.5481 35.0408ZM23.7278 24.5526L15.7825 16.6893H34.0872L26.1418 24.5526C25.6731 25.0096 25.3215 25.1971 24.9348 25.1971C24.5481 25.1971 24.1965 24.9979 23.7278 24.5526ZM14.2004 18.5877L20.0129 24.3065L14.2004 30.0838V18.5877ZM29.845 24.3065L35.6458 18.5994V30.0604L29.845 24.3065ZM15.6653 32.1932C15.6067 32.1815 15.6301 32.1932 15.5833 32.1815L21.7708 26.0291L22.2161 26.4744C23.1067 27.3416 23.9856 27.7401 24.9348 27.7401C25.884 27.7401 26.7629 27.3416 27.6418 26.4744L28.0989 26.0291L34.2864 32.1815C34.2512 32.1815 34.2161 32.1932 34.1809 32.1932H15.6653Z" fill="white"/>
</svg>
