<svg width="49" height="49" viewBox="0 0 49 49" fill="none" xmlns="http://www.w3.org/2000/svg">
<g clip-path="url(#clip0_6_92)">
<path d="M0.579346 24.3845C0.579346 11.1297 11.3245 0.384521 24.5793 0.384521C37.8341 0.384521 48.5793 11.1297 48.5793 24.3845C48.5793 37.6393 37.8341 48.3845 24.5793 48.3845C11.3245 48.3845 0.579346 37.6393 0.579346 24.3845Z" fill="black" fill-opacity="0.1"/>
<path d="M15.4426 34.3377H19.1105V35.3573C19.1105 36.0135 19.6027 36.5057 20.2707 36.5057C20.927 36.5057 21.4191 36.0135 21.4191 35.3573V34.3377H23.0598V35.3573C23.0598 36.0135 23.5637 36.5057 24.2199 36.5057C24.8762 36.5057 25.3801 36.0135 25.3801 35.3573V34.3377H27.0324V35.3573C27.0324 36.0135 27.5246 36.5057 28.1809 36.5057C28.8488 36.5057 29.341 36.0135 29.341 35.3573V34.3377H32.9973C33.677 34.3377 34.1223 33.8924 34.1223 33.2127V29.533H35.1535C35.8098 29.533 36.302 29.0291 36.302 28.3729C36.302 27.7166 35.8098 27.2127 35.1535 27.2127H34.1223V25.5721H35.1535C35.8098 25.5721 36.302 25.0799 36.302 24.4237C36.302 23.7674 35.8098 23.2635 35.1535 23.2635H34.1223V21.6229H35.1535C35.8098 21.6229 36.302 21.1307 36.302 20.4744C36.302 19.8065 35.8098 19.3143 35.1535 19.3143H34.1223V15.658C34.1223 14.9901 33.677 14.533 32.9973 14.533H29.3293V13.5135C29.3293 12.8455 28.8254 12.3533 28.1691 12.3533C27.5129 12.3533 27.009 12.8455 27.009 13.5135V14.533H25.3801V13.5135C25.3801 12.8455 24.8762 12.3533 24.2199 12.3533C23.5637 12.3533 23.0598 12.8455 23.0598 13.5135V14.533H21.4191V13.5135C21.4191 12.8455 20.927 12.3533 20.2707 12.3533C19.6027 12.3533 19.1105 12.8455 19.1105 13.5135V14.533H15.4426C14.7629 14.533 14.3176 14.9901 14.3176 15.658V19.326H13.2277C12.5598 19.326 12.0676 19.8182 12.0676 20.4744C12.0676 21.1307 12.5598 21.6346 13.2277 21.6346H14.3176V23.2752H13.2277C12.5598 23.2752 12.0676 23.7674 12.0676 24.4237C12.0676 25.0916 12.5598 25.5838 13.2277 25.5838H14.3176V27.2244H13.2277C12.5598 27.2244 12.0676 27.7166 12.0676 28.3846C12.0676 29.0408 12.5598 29.533 13.2277 29.533H14.3176V33.2127C14.3176 33.8924 14.7629 34.3377 15.4426 34.3377ZM17.6691 31.3143C17.4465 31.3143 17.341 31.2088 17.341 30.9979V17.8846C17.341 17.6619 17.4465 17.5565 17.6691 17.5565H30.7707C30.9934 17.5565 31.0988 17.6619 31.0988 17.8846V30.9979C31.0988 31.2088 30.9934 31.3143 30.7707 31.3143H17.6691ZM20.2238 29.2752H28.216C28.7668 29.2752 29.0715 28.9705 29.0715 28.4198V20.451C29.0715 19.8885 28.7668 19.5838 28.216 19.5838H20.2238C19.673 19.5838 19.3684 19.8885 19.3684 20.451V28.4198C19.3684 28.9705 19.673 29.2752 20.2238 29.2752ZM21.6418 27.2362C21.5012 27.2362 21.4074 27.1424 21.4074 27.0018V21.869C21.4074 21.7166 21.5012 21.6229 21.6418 21.6229H26.798C26.9387 21.6229 27.0324 21.7166 27.0324 21.869V27.0018C27.0324 27.1424 26.9387 27.2362 26.798 27.2362H21.6418Z" fill="black"/>
</g>
<defs>
<clipPath id="clip0_6_92">
<rect width="48" height="48" fill="white" transform="translate(0.579346 0.384521)"/>
</clipPath>
</defs>
</svg>
