<svg width="49" height="49" viewBox="0 0 49 49" fill="none" xmlns="http://www.w3.org/2000/svg">
<g clip-path="url(#clip0_6_120)">
<path d="M0.251221 24.3845C0.251221 11.1297 10.9964 0.384521 24.2512 0.384521C37.506 0.384521 48.2512 11.1297 48.2512 24.3845C48.2512 37.6393 37.506 48.3845 24.2512 48.3845C10.9964 48.3845 0.251221 37.6393 0.251221 24.3845Z" fill="black" fill-opacity="0.05"/>
<path d="M12.5622 33.0183L14.3528 34.8181C15.3176 35.7829 16.5051 35.718 17.5071 34.6047L27.573 23.4719C27.8513 23.5368 28.1389 23.5276 28.4729 23.4533L29.2707 23.2956L29.6882 23.7224L29.6418 24.1677C29.5862 24.6872 29.781 25.1511 30.3005 25.6614L31.0334 26.385C31.6365 26.9787 32.4065 27.0066 32.9724 26.4407L35.802 23.6018C36.3772 23.0266 36.3493 22.2658 35.7556 21.6721L35.0227 20.9299C34.5217 20.4197 34.0578 20.2248 33.5383 20.2712L33.0837 20.3176L32.6755 19.9187L32.8611 19.0837C33.0188 18.3323 32.8332 17.8034 32.091 17.0613L30.1428 15.1223C26.8586 11.8381 22.2014 11.7917 19.2419 14.7512C18.7688 15.2151 18.7409 15.8552 18.9914 16.3191C19.2698 16.8015 19.8635 17.1262 20.6242 16.9314C22.0158 16.5788 23.324 16.5974 24.5022 17.3117L24.029 18.4992C23.862 18.926 23.8064 19.2971 23.862 19.6496L12.7571 29.864C11.6716 30.8567 11.5974 32.0442 12.5622 33.0183ZM21.4778 15.2429C23.6672 13.8977 26.5061 14.3244 28.4358 16.2634L30.6438 18.4529C30.8757 18.6848 30.9128 18.8796 30.8572 19.2043L30.5974 20.5588L32.1931 22.1452L33.1208 22.0989C33.3157 22.0989 33.3806 22.1174 33.529 22.2566L33.863 22.5906L31.9241 24.5295L31.5901 24.1955C31.4509 24.0564 31.4231 23.9822 31.4324 23.7873L31.4787 22.8689L29.8923 21.2732L28.51 21.4958C28.1946 21.5515 28.0183 21.5237 27.7864 21.2917L26.1721 19.6775C25.9309 19.4455 25.8659 19.2414 25.9958 18.9167L26.8401 16.9128C25.3371 15.4284 23.3889 14.8996 21.5334 15.3635C21.4314 15.3913 21.385 15.3078 21.4778 15.2429ZM15.3918 32.8884L14.4826 31.9699C14.195 31.6824 14.2507 31.469 14.5105 31.237L25.0124 21.2917L25.9773 22.2658L16.134 32.8699C15.9021 33.1203 15.6887 33.176 15.3918 32.8884Z" fill="black"/>
</g>
<defs>
<clipPath id="clip0_6_120">
<rect width="48" height="48" fill="white" transform="translate(0.251221 0.384521)"/>
</clipPath>
</defs>
</svg>
