<svg width="49" height="49" viewBox="0 0 49 49" fill="none" xmlns="http://www.w3.org/2000/svg">
<path d="M0.923096 24.3845C0.923096 11.1297 11.6683 0.384521 24.9231 0.384521C38.1779 0.384521 48.9231 11.1297 48.9231 24.3845C48.9231 37.6393 38.1779 48.3845 24.9231 48.3845C11.6683 48.3845 0.923096 37.6393 0.923096 24.3845Z" fill="white" fill-opacity="0.2"/>
<path d="M36.2278 24.3884C36.2278 23.9314 36.0286 23.4509 35.7122 23.1345L28.0833 15.5173C27.72 15.154 27.2981 14.9782 26.8879 14.9782C25.8918 14.9782 25.2122 15.6697 25.2122 16.5837C25.2122 17.0993 25.4348 17.4978 25.7512 17.8025L28.3762 20.4392L30.9661 22.8298L28.4114 22.6892H15.1692C14.1145 22.6892 13.4114 23.3689 13.4114 24.3884C13.4114 25.3962 14.1145 26.0876 15.1692 26.0876H28.4114L30.9778 25.947L28.3762 28.3376L25.7512 30.9626C25.4348 31.2673 25.2122 31.6775 25.2122 32.1814C25.2122 33.0954 25.8918 33.7868 26.8879 33.7868C27.2981 33.7868 27.72 33.6111 28.0715 33.2595L35.7122 25.6423C36.0286 25.3259 36.2278 24.8454 36.2278 24.3884Z" fill="white"/>
</svg>
