<svg width="49" height="49" viewBox="0 0 49 49" fill="none" xmlns="http://www.w3.org/2000/svg">
<path d="M0.923096 24.3845C0.923096 11.1297 11.6683 0.384521 24.9231 0.384521C38.1779 0.384521 48.9231 11.1297 48.9231 24.3845C48.9231 37.6393 38.1779 48.3845 24.9231 48.3845C11.6683 48.3845 0.923096 37.6393 0.923096 24.3845Z" fill="black" fill-opacity="0.1"/>
<path d="M14.8528 23.1111C15.6614 23.1111 16.2708 22.5134 16.2708 21.6931V20.9665L16.0129 17.5915L18.4973 20.2048L21.6965 23.4275C21.9661 23.7087 22.3176 23.8493 22.7043 23.8493C23.5833 23.8493 24.2043 23.24 24.2043 22.3611C24.2043 21.9626 24.0403 21.6111 23.7708 21.3415L20.5481 18.1306L17.9348 15.6579L21.345 15.9157H22.1887C22.9973 15.9157 23.6067 15.3181 23.6067 14.4861C23.6067 13.6657 23.009 13.0564 22.1887 13.0564H15.6965C14.2551 13.0564 13.4114 13.9001 13.4114 15.3415V21.6931C13.4114 22.5134 14.0208 23.1111 14.8528 23.1111ZM27.3684 35.8025H33.8489C35.302 35.8025 36.134 34.9704 36.134 33.5173V27.1775C36.134 26.3572 35.5247 25.7595 34.7043 25.7595C33.884 25.7595 33.2864 26.3454 33.2864 27.1775V27.904L33.5325 31.2673L31.0598 28.6657L27.8606 25.4431C27.5911 25.1618 27.2278 25.0212 26.8528 25.0212C25.9739 25.0212 25.3528 25.6306 25.3528 26.5095C25.3528 26.8962 25.5051 27.2478 25.7747 27.529L28.9973 30.74L31.6106 33.2009L28.2122 32.9548H27.3684C26.5481 32.9548 25.9504 33.5525 25.9504 34.3728C25.9504 35.2048 26.5481 35.8025 27.3684 35.8025Z" fill="black"/>
</svg>
