<svg width="81" height="81" viewBox="0 0 81 81" fill="none" xmlns="http://www.w3.org/2000/svg">
<g clip-path="url(#clip0_6_7)">
<path d="M60.9231 0.884521H20.9231C9.8774 0.884521 0.923096 9.83883 0.923096 20.8845V60.8845C0.923096 71.9302 9.8774 80.8845 20.9231 80.8845H60.9231C71.9688 80.8845 80.9231 71.9302 80.9231 60.8845V20.8845C80.9231 9.83883 71.9688 0.884521 60.9231 0.884521Z" fill="url(#paint0_linear_6_7)"/>
<path d="M38.2134 45.9512C38.2134 47.2767 39.2879 48.3512 40.6134 48.3512C41.9389 48.3512 43.0134 47.2767 43.0134 45.9512V39.8178H49.1468C50.4722 39.8178 51.5468 38.7433 51.5468 37.4178C51.5468 36.0924 50.4722 35.0178 49.1468 35.0178H43.0134V29.4178C43.0134 28.0924 41.9389 27.0178 40.6134 27.0178C39.2879 27.0178 38.2134 28.0924 38.2134 29.4178V35.0178H32.6134C31.2879 35.0178 30.2134 36.0924 30.2134 37.4178C30.2134 38.7433 31.2879 39.8178 32.6134 39.8178H38.2134V45.9512Z" fill="white"/>
<path fill-rule="evenodd" clip-rule="evenodd" d="M14.4613 50.395L23.6925 18.0859C24.3467 15.7963 26.4394 14.2178 28.8206 14.2178H52.7747C55.156 14.2178 57.2487 15.7963 57.9029 18.0859L67.1341 50.3951C67.3515 51.1562 67.3968 51.9562 67.2667 52.737L65.5407 63.0944C65.1122 65.6661 62.8871 67.5511 60.2799 67.5511H21.316C18.7089 67.5511 16.4839 65.6663 16.0552 63.0947L14.3287 52.7371C14.1985 51.9562 14.2438 51.1562 14.4613 50.395ZM17.769 48.1518C17.2823 49.8553 18.5614 51.5511 20.3331 51.5511H27.5193C29.0028 51.5511 30.2011 52.7618 30.1858 54.2452L30.1589 56.8569C30.1436 58.3404 31.3419 59.5511 32.8254 59.5511H48.8252C50.3034 59.5511 51.4995 58.3488 51.4919 56.8707L51.4783 54.2315C51.4707 52.7534 52.6668 51.5511 54.1449 51.5511H61.2625C63.0342 51.5511 64.3133 49.8553 63.8266 48.1518L55.4456 18.8185C55.1185 17.6737 54.0722 16.8844 52.8816 16.8844H28.714C27.5234 16.8844 26.4771 17.6737 26.15 18.8185L17.769 48.1518Z" fill="white"/>
</g>
<defs>
<linearGradient id="paint0_linear_6_7" x1="40.9231" y1="0.884521" x2="40.9231" y2="80.8845" gradientUnits="userSpaceOnUse">
<stop stop-color="#14B4F0"/>
<stop offset="1" stop-color="#1E64DC"/>
</linearGradient>
<clipPath id="clip0_6_7">
<rect width="80" height="80" fill="white" transform="translate(0.923096 0.884521)"/>
</clipPath>
</defs>
</svg>
